<svg version="1.1" baseProfile="full" xmlns="http://www.w3.org/2000/svg" xmlns:xlink="http://www.w3.org/1999/xlink" xml:space="preserve" width="460px" height="320px" viewBox="0 0 460 320">

<path class="bond-25 atom-25 atom-26" d="M 190.1,244.3 L 191.6,251.2 L 151.2,259.7 L 149.8,252.8 Z" style="fill:#F9B759;fill-rule:evenodd;fill-opacity:1;stroke:#F9B759;stroke-width:0.0px;stroke-linecap:butt;stroke-linejoin:miter;stroke-miterlimit:10;stroke-opacity:1;"></path>
<ellipse cx="203.7" cy="208.5" rx="8.2" ry="8.2" class="atom-0" style="fill:#F9B759;fill-rule:evenodd;stroke:#F9B759;stroke-width:1.0px;stroke-linecap:butt;stroke-linejoin:miter;stroke-opacity:1"></ellipse>
<ellipse cx="150.5" cy="256.3" rx="8.2" ry="8.5" class="atom-25" style="fill:#F9B759;fill-rule:evenodd;stroke:#F9B759;stroke-width:1.0px;stroke-linecap:butt;stroke-linejoin:miter;stroke-opacity:1"></ellipse>
<ellipse cx="190.9" cy="247.7" rx="8.2" ry="8.2" class="atom-26" style="fill:#F9B759;fill-rule:evenodd;stroke:#F9B759;stroke-width:1.0px;stroke-linecap:butt;stroke-linejoin:miter;stroke-opacity:1"></ellipse>
<path class="bond-0 atom-0 atom-1" d="M 203.7,208.5 L 176.1,177.8" style="fill:none;fill-rule:evenodd;stroke:#192828;stroke-width:1.6px;stroke-linecap:butt;stroke-linejoin:miter;stroke-opacity:1"></path>
<path class="bond-1 atom-1 atom-2" d="M 176.1,177.8 L 181.3,162.0" style="fill:none;fill-rule:evenodd;stroke:#192828;stroke-width:1.6px;stroke-linecap:butt;stroke-linejoin:miter;stroke-opacity:1"></path>
<path class="bond-1 atom-1 atom-2" d="M 181.3,162.0 L 186.5,146.1" style="fill:none;fill-rule:evenodd;stroke:#CC2619;stroke-width:1.6px;stroke-linecap:butt;stroke-linejoin:miter;stroke-opacity:1"></path>
<path class="bond-2 atom-2 atom-3" d="M 195.6,137.2 L 212.4,133.7" style="fill:none;fill-rule:evenodd;stroke:#CC2619;stroke-width:1.6px;stroke-linecap:butt;stroke-linejoin:miter;stroke-opacity:1"></path>
<path class="bond-2 atom-2 atom-3" d="M 212.4,133.7 L 229.2,130.1" style="fill:none;fill-rule:evenodd;stroke:#192828;stroke-width:1.6px;stroke-linecap:butt;stroke-linejoin:miter;stroke-opacity:1"></path>
<path class="bond-3 atom-3 atom-4" d="M 229.2,130.1 L 256.8,160.8" style="fill:none;fill-rule:evenodd;stroke:#192828;stroke-width:1.6px;stroke-linecap:butt;stroke-linejoin:miter;stroke-opacity:1"></path>
<path class="bond-4 atom-4 atom-5" d="M 256.8,160.8 L 297.2,152.3" style="fill:none;fill-rule:evenodd;stroke:#192828;stroke-width:1.6px;stroke-linecap:butt;stroke-linejoin:miter;stroke-opacity:1"></path>
<path class="bond-4 atom-4 atom-5" d="M 259.0,154.0 L 292.4,146.9" style="fill:none;fill-rule:evenodd;stroke:#192828;stroke-width:1.6px;stroke-linecap:butt;stroke-linejoin:miter;stroke-opacity:1"></path>
<path class="bond-5 atom-5 atom-6" d="M 297.2,152.3 L 324.7,182.9" style="fill:none;fill-rule:evenodd;stroke:#192828;stroke-width:1.6px;stroke-linecap:butt;stroke-linejoin:miter;stroke-opacity:1"></path>
<path class="bond-6 atom-6 atom-7" d="M 324.7,182.9 L 365.7,178.7" style="fill:none;fill-rule:evenodd;stroke:#192828;stroke-width:1.6px;stroke-linecap:butt;stroke-linejoin:miter;stroke-opacity:1"></path>
<path class="bond-6 atom-6 atom-7" d="M 329.8,188.6 L 361.9,185.3" style="fill:none;fill-rule:evenodd;stroke:#192828;stroke-width:1.6px;stroke-linecap:butt;stroke-linejoin:miter;stroke-opacity:1"></path>
<path class="bond-7 atom-7 atom-8" d="M 365.7,178.7 L 386.4,143.0" style="fill:none;fill-rule:evenodd;stroke:#192828;stroke-width:1.6px;stroke-linecap:butt;stroke-linejoin:miter;stroke-opacity:1"></path>
<path class="bond-8 atom-7 atom-9" d="M 365.7,178.7 L 372.5,193.9" style="fill:none;fill-rule:evenodd;stroke:#192828;stroke-width:1.6px;stroke-linecap:butt;stroke-linejoin:miter;stroke-opacity:1"></path>
<path class="bond-8 atom-7 atom-9" d="M 372.5,193.9 L 379.3,209.2" style="fill:none;fill-rule:evenodd;stroke:#194CBF;stroke-width:1.6px;stroke-linecap:butt;stroke-linejoin:miter;stroke-opacity:1"></path>
<path class="bond-9 atom-9 atom-10" d="M 388.3,217.6 L 405.5,221.3" style="fill:none;fill-rule:evenodd;stroke:#194CBF;stroke-width:1.6px;stroke-linecap:butt;stroke-linejoin:miter;stroke-opacity:1"></path>
<path class="bond-9 atom-9 atom-10" d="M 405.5,221.3 L 422.8,225.0" style="fill:none;fill-rule:evenodd;stroke:#192828;stroke-width:1.6px;stroke-linecap:butt;stroke-linejoin:miter;stroke-opacity:1"></path>
<path class="bond-10 atom-9 atom-11" d="M 376.7,221.6 L 357.6,238.7" style="fill:none;fill-rule:evenodd;stroke:#194CBF;stroke-width:1.6px;stroke-linecap:butt;stroke-linejoin:miter;stroke-opacity:1"></path>
<path class="bond-11 atom-11 atom-12" d="M 346.0,240.6 L 331.0,231.9" style="fill:none;fill-rule:evenodd;stroke:#194CBF;stroke-width:1.6px;stroke-linecap:butt;stroke-linejoin:miter;stroke-opacity:1"></path>
<path class="bond-11 atom-11 atom-12" d="M 331.0,231.9 L 316.1,223.3" style="fill:none;fill-rule:evenodd;stroke:#192828;stroke-width:1.6px;stroke-linecap:butt;stroke-linejoin:miter;stroke-opacity:1"></path>
<path class="bond-11 atom-11 atom-12" d="M 349.1,235.2 L 336.1,227.7" style="fill:none;fill-rule:evenodd;stroke:#194CBF;stroke-width:1.6px;stroke-linecap:butt;stroke-linejoin:miter;stroke-opacity:1"></path>
<path class="bond-11 atom-11 atom-12" d="M 336.1,227.7 L 323.1,220.2" style="fill:none;fill-rule:evenodd;stroke:#192828;stroke-width:1.6px;stroke-linecap:butt;stroke-linejoin:miter;stroke-opacity:1"></path>
<path class="bond-12 atom-12 atom-13" d="M 316.1,223.3 L 278.4,240.0" style="fill:none;fill-rule:evenodd;stroke:#192828;stroke-width:1.6px;stroke-linecap:butt;stroke-linejoin:miter;stroke-opacity:1"></path>
<path class="bond-13 atom-5 atom-14" d="M 297.2,152.3 L 310.0,113.1" style="fill:none;fill-rule:evenodd;stroke:#192828;stroke-width:1.6px;stroke-linecap:butt;stroke-linejoin:miter;stroke-opacity:1"></path>
<path class="bond-14 atom-14 atom-15" d="M 310.0,113.1 L 299.1,100.9" style="fill:none;fill-rule:evenodd;stroke:#192828;stroke-width:1.6px;stroke-linecap:butt;stroke-linejoin:miter;stroke-opacity:1"></path>
<path class="bond-14 atom-14 atom-15" d="M 299.1,100.9 L 288.2,88.8" style="fill:none;fill-rule:evenodd;stroke:#194CBF;stroke-width:1.6px;stroke-linecap:butt;stroke-linejoin:miter;stroke-opacity:1"></path>
<path class="bond-14 atom-14 atom-15" d="M 303.0,114.5 L 293.3,103.7" style="fill:none;fill-rule:evenodd;stroke:#192828;stroke-width:1.6px;stroke-linecap:butt;stroke-linejoin:miter;stroke-opacity:1"></path>
<path class="bond-14 atom-14 atom-15" d="M 293.3,103.7 L 283.6,93.0" style="fill:none;fill-rule:evenodd;stroke:#194CBF;stroke-width:1.6px;stroke-linecap:butt;stroke-linejoin:miter;stroke-opacity:1"></path>
<path class="bond-15 atom-15 atom-16" d="M 276.6,83.6 L 259.3,87.2" style="fill:none;fill-rule:evenodd;stroke:#194CBF;stroke-width:1.6px;stroke-linecap:butt;stroke-linejoin:miter;stroke-opacity:1"></path>
<path class="bond-15 atom-15 atom-16" d="M 259.3,87.2 L 242.0,90.9" style="fill:none;fill-rule:evenodd;stroke:#192828;stroke-width:1.6px;stroke-linecap:butt;stroke-linejoin:miter;stroke-opacity:1"></path>
<path class="bond-16 atom-16 atom-17" d="M 242.0,90.9 L 231.2,78.8" style="fill:none;fill-rule:evenodd;stroke:#192828;stroke-width:1.6px;stroke-linecap:butt;stroke-linejoin:miter;stroke-opacity:1"></path>
<path class="bond-16 atom-16 atom-17" d="M 231.2,78.8 L 220.3,66.7" style="fill:none;fill-rule:evenodd;stroke:#194CBF;stroke-width:1.6px;stroke-linecap:butt;stroke-linejoin:miter;stroke-opacity:1"></path>
<path class="bond-17 atom-1 atom-18" d="M 176.1,177.8 L 135.7,186.4" style="fill:none;fill-rule:evenodd;stroke:#192828;stroke-width:1.6px;stroke-linecap:butt;stroke-linejoin:miter;stroke-opacity:1"></path>
<path class="bond-18 atom-18 atom-19" d="M 135.7,186.4 L 108.2,155.7" style="fill:none;fill-rule:evenodd;stroke:#192828;stroke-width:1.6px;stroke-linecap:butt;stroke-linejoin:miter;stroke-opacity:1"></path>
<path class="bond-19 atom-19 atom-20" d="M 108.2,155.7 L 67.8,164.2" style="fill:none;fill-rule:evenodd;stroke:#192828;stroke-width:1.6px;stroke-linecap:butt;stroke-linejoin:miter;stroke-opacity:1"></path>
<path class="bond-19 atom-19 atom-20" d="M 106.0,162.5 L 72.6,169.5" style="fill:none;fill-rule:evenodd;stroke:#192828;stroke-width:1.6px;stroke-linecap:butt;stroke-linejoin:miter;stroke-opacity:1"></path>
<path class="bond-20 atom-20 atom-21" d="M 67.8,164.2 L 56.5,151.6" style="fill:none;fill-rule:evenodd;stroke:#192828;stroke-width:1.6px;stroke-linecap:butt;stroke-linejoin:miter;stroke-opacity:1"></path>
<path class="bond-20 atom-20 atom-21" d="M 56.5,151.6 L 45.1,138.9" style="fill:none;fill-rule:evenodd;stroke:#197F33;stroke-width:1.6px;stroke-linecap:butt;stroke-linejoin:miter;stroke-opacity:1"></path>
<path class="bond-21 atom-20 atom-22" d="M 67.8,164.2 L 55.0,203.4" style="fill:none;fill-rule:evenodd;stroke:#192828;stroke-width:1.6px;stroke-linecap:butt;stroke-linejoin:miter;stroke-opacity:1"></path>
<path class="bond-22 atom-22 atom-23" d="M 55.0,203.4 L 82.6,234.1" style="fill:none;fill-rule:evenodd;stroke:#192828;stroke-width:1.6px;stroke-linecap:butt;stroke-linejoin:miter;stroke-opacity:1"></path>
<path class="bond-22 atom-22 atom-23" d="M 62.0,201.9 L 84.8,227.3" style="fill:none;fill-rule:evenodd;stroke:#192828;stroke-width:1.6px;stroke-linecap:butt;stroke-linejoin:miter;stroke-opacity:1"></path>
<path class="bond-23 atom-23 atom-24" d="M 82.6,234.1 L 123.0,225.6" style="fill:none;fill-rule:evenodd;stroke:#192828;stroke-width:1.6px;stroke-linecap:butt;stroke-linejoin:miter;stroke-opacity:1"></path>
<path class="bond-24 atom-24 atom-25" d="M 123.0,225.6 L 144.0,249.0" style="fill:none;fill-rule:evenodd;stroke:#192828;stroke-width:1.6px;stroke-linecap:butt;stroke-linejoin:miter;stroke-opacity:1"></path>
<path class="bond-25 atom-25 atom-26" d="M 157.2,254.8 L 190.9,247.7" style="fill:none;fill-rule:evenodd;stroke:#192828;stroke-width:1.6px;stroke-linecap:butt;stroke-linejoin:miter;stroke-opacity:1"></path>
<path class="bond-26 atom-16 atom-3" d="M 242.0,90.9 L 229.2,130.1" style="fill:none;fill-rule:evenodd;stroke:#192828;stroke-width:1.6px;stroke-linecap:butt;stroke-linejoin:miter;stroke-opacity:1"></path>
<path class="bond-26 atom-16 atom-3" d="M 246.8,96.2 L 236.2,128.6" style="fill:none;fill-rule:evenodd;stroke:#192828;stroke-width:1.6px;stroke-linecap:butt;stroke-linejoin:miter;stroke-opacity:1"></path>
<path class="bond-27 atom-24 atom-18" d="M 123.0,225.6 L 135.7,186.4" style="fill:none;fill-rule:evenodd;stroke:#192828;stroke-width:1.6px;stroke-linecap:butt;stroke-linejoin:miter;stroke-opacity:1"></path>
<path class="bond-27 atom-24 atom-18" d="M 118.2,220.3 L 128.8,187.8" style="fill:none;fill-rule:evenodd;stroke:#192828;stroke-width:1.6px;stroke-linecap:butt;stroke-linejoin:miter;stroke-opacity:1"></path>
<path class="bond-28 atom-12 atom-6" d="M 316.1,223.3 L 324.7,182.9" style="fill:none;fill-rule:evenodd;stroke:#192828;stroke-width:1.6px;stroke-linecap:butt;stroke-linejoin:miter;stroke-opacity:1"></path>
<path d="M 255.4,159.3 L 256.8,160.8 L 258.8,160.4" style="fill:none;stroke:#192828;stroke-width:1.6px;stroke-linecap:butt;stroke-linejoin:miter;stroke-miterlimit:10;stroke-opacity:1;"></path>
<path d="M 309.3,115.0 L 310.0,113.1 L 309.4,112.4" style="fill:none;stroke:#192828;stroke-width:1.6px;stroke-linecap:butt;stroke-linejoin:miter;stroke-miterlimit:10;stroke-opacity:1;"></path>
<path d="M 109.6,157.2 L 108.2,155.7 L 106.2,156.1" style="fill:none;stroke:#192828;stroke-width:1.6px;stroke-linecap:butt;stroke-linejoin:miter;stroke-miterlimit:10;stroke-opacity:1;"></path>
<path d="M 55.7,201.5 L 55.0,203.4 L 56.4,204.9" style="fill:none;stroke:#192828;stroke-width:1.6px;stroke-linecap:butt;stroke-linejoin:miter;stroke-miterlimit:10;stroke-opacity:1;"></path>
<path d="M 81.2,232.6 L 82.6,234.1 L 84.6,233.7" style="fill:none;stroke:#192828;stroke-width:1.6px;stroke-linecap:butt;stroke-linejoin:miter;stroke-miterlimit:10;stroke-opacity:1;"></path>
<path class="atom-2" d="M 183.5 138.7 Q 183.5 135.9, 184.9 134.3 Q 186.3 132.7, 188.9 132.7 Q 191.5 132.7, 192.9 134.3 Q 194.3 135.9, 194.3 138.7 Q 194.3 141.5, 192.9 143.1 Q 191.4 144.7, 188.9 144.7 Q 186.3 144.7, 184.9 143.1 Q 183.5 141.5, 183.5 138.7 M 188.9 143.4 Q 190.7 143.4, 191.6 142.2 Q 192.6 141.0, 192.6 138.7 Q 192.6 136.4, 191.6 135.2 Q 190.7 134.0, 188.9 134.0 Q 187.1 134.0, 186.1 135.2 Q 185.2 136.4, 185.2 138.7 Q 185.2 141.0, 186.1 142.2 Q 187.1 143.4, 188.9 143.4 " fill="#CC2619"></path>
<path class="atom-9" d="M 379.9 210.5 L 383.7 216.7 Q 384.1 217.3, 384.7 218.5 Q 385.3 219.6, 385.3 219.6 L 385.3 210.5 L 386.9 210.5 L 386.9 222.2 L 385.3 222.2 L 381.2 215.5 Q 380.7 214.7, 380.2 213.8 Q 379.7 212.9, 379.6 212.6 L 379.6 222.2 L 378.0 222.2 L 378.0 210.5 L 379.9 210.5 " fill="#194CBF"></path>
<path class="atom-11" d="M 349.2 238.1 L 353.0 244.3 Q 353.4 244.9, 354.0 246.0 Q 354.6 247.1, 354.7 247.2 L 354.7 238.1 L 356.2 238.1 L 356.2 249.8 L 354.6 249.8 L 350.5 243.0 Q 350.0 242.2, 349.5 241.3 Q 349.0 240.4, 348.9 240.1 L 348.9 249.8 L 347.4 249.8 L 347.4 238.1 L 349.2 238.1 " fill="#194CBF"></path>
<path class="atom-15" d="M 279.8 76.5 L 283.6 82.7 Q 284.0 83.3, 284.6 84.4 Q 285.2 85.5, 285.3 85.6 L 285.3 76.5 L 286.8 76.5 L 286.8 88.2 L 285.2 88.2 L 281.1 81.4 Q 280.6 80.7, 280.1 79.7 Q 279.6 78.8, 279.5 78.6 L 279.5 88.2 L 278.0 88.2 L 278.0 76.5 L 279.8 76.5 " fill="#194CBF"></path>
<path class="atom-17" d="M 191.9 54.4 L 193.5 54.4 L 193.5 59.3 L 199.5 59.3 L 199.5 54.4 L 201.1 54.4 L 201.1 66.1 L 199.5 66.1 L 199.5 60.7 L 193.5 60.7 L 193.5 66.1 L 191.9 66.1 L 191.9 54.4 " fill="#194CBF"></path>
<path class="atom-17" d="M 203.4 65.6 Q 203.6 64.9, 204.3 64.5 Q 205.0 64.1, 205.9 64.1 Q 207.1 64.1, 207.8 64.7 Q 208.4 65.4, 208.4 66.5 Q 208.4 67.6, 207.6 68.7 Q 206.7 69.8, 205.0 71.0 L 208.5 71.0 L 208.5 71.9 L 203.3 71.9 L 203.3 71.2 Q 204.8 70.1, 205.6 69.4 Q 206.5 68.6, 206.9 67.9 Q 207.3 67.2, 207.3 66.5 Q 207.3 65.8, 206.9 65.4 Q 206.6 65.0, 205.9 65.0 Q 205.3 65.0, 204.9 65.2 Q 204.5 65.5, 204.2 66.0 L 203.4 65.6 " fill="#194CBF"></path>
<path class="atom-17" d="M 211.9 54.4 L 215.7 60.6 Q 216.1 61.2, 216.7 62.3 Q 217.3 63.4, 217.4 63.4 L 217.4 54.4 L 218.9 54.4 L 218.9 66.1 L 217.3 66.1 L 213.2 59.3 Q 212.7 58.5, 212.2 57.6 Q 211.7 56.7, 211.6 56.4 L 211.6 66.1 L 210.0 66.1 L 210.0 54.4 L 211.9 54.4 " fill="#194CBF"></path>
<path class="atom-21" d="M 36.8 127.7 L 43.7 127.7 L 43.7 129.0 L 38.4 129.0 L 38.4 132.6 L 43.2 132.6 L 43.2 133.9 L 38.4 133.9 L 38.4 139.4 L 36.8 139.4 L 36.8 127.7 " fill="#197F33"></path>
<path class="atom-25" d="M 145.1 256.3 Q 145.1 253.5, 146.5 251.9 Q 147.9 250.4, 150.5 250.4 Q 153.1 250.4, 154.5 251.9 Q 155.9 253.5, 155.9 256.3 Q 155.9 259.1, 154.5 260.7 Q 153.1 262.3, 150.5 262.3 Q 147.9 262.3, 146.5 260.7 Q 145.1 259.1, 145.1 256.3 M 150.5 261.0 Q 152.3 261.0, 153.2 259.8 Q 154.2 258.6, 154.2 256.3 Q 154.2 254.0, 153.2 252.8 Q 152.3 251.7, 150.5 251.7 Q 148.7 251.7, 147.8 252.8 Q 146.8 254.0, 146.8 256.3 Q 146.8 258.6, 147.8 259.8 Q 148.7 261.0, 150.5 261.0 " fill="#192828"></path>
</svg>